<svg width="300" height="150" fill="none" xmlns="http://www.w3.org/2000/svg">
  <ellipse cx="150" cy="75" rx="150" ry="75" fill="#9FAEE3" fill-opacity=".49"/>
  <g filter="url(#filter0_d)">
    <path d="M48.705 56.705H34.537V96h-5.782V56.705H14.617v-4.783h34.088v4.783zM59.967 67.21c2.482-3.048 5.711-4.571 9.687-4.571 6.923 0 10.414 3.905 10.475 11.715V96h-5.6V74.324c-.02-2.361-.566-4.107-1.635-5.237-1.05-1.13-2.695-1.695-4.935-1.695-1.816 0-3.41.484-4.783 1.453-1.373.969-2.442 2.24-3.21 3.814V96h-5.6V49.5h5.6v17.71zm42.14 29.396c-4.44 0-8.052-1.454-10.838-4.36-2.785-2.926-4.177-6.832-4.177-11.716v-1.029c0-3.25.615-6.145 1.847-8.689 1.25-2.563 2.987-4.56 5.207-5.994 2.24-1.453 4.662-2.18 7.265-2.18 4.259 0 7.568 1.403 9.93 4.209 2.361 2.805 3.542 6.821 3.542 12.049v2.33h-22.19c.08 3.23 1.019 5.843 2.815 7.841 1.816 1.978 4.117 2.967 6.902 2.967 1.978 0 3.653-.404 5.026-1.21 1.372-.808 2.573-1.878 3.602-3.21l3.421 2.664c-2.745 4.218-6.862 6.328-12.352 6.328zm-.696-29.366c-2.26 0-4.157.828-5.691 2.483-1.534 1.634-2.483 3.935-2.846 6.902h16.408v-.424c-.161-2.845-.928-5.045-2.301-6.6-1.372-1.574-3.229-2.36-5.57-2.36zM137.648 96V51.922h12.443c3.834 0 7.225.848 10.172 2.543 2.946 1.695 5.217 4.107 6.811 7.235 1.615 3.129 2.432 6.72 2.452 10.778v2.815c0 4.157-.807 7.8-2.422 10.929-1.594 3.128-3.885 5.53-6.872 7.205-2.966 1.675-6.428 2.533-10.383 2.573h-12.201zm5.813-39.295v34.542h6.115c4.481 0 7.962-1.392 10.445-4.178 2.502-2.785 3.753-6.75 3.753-11.897v-2.573c0-5.006-1.18-8.89-3.542-11.656-2.341-2.785-5.671-4.198-9.99-4.238h-6.781zM197.681 96c-.323-.646-.586-1.796-.787-3.451-2.604 2.704-5.712 4.056-9.325 4.056-3.229 0-5.883-.908-7.962-2.724-2.058-1.837-3.087-4.158-3.087-6.963 0-3.41 1.291-6.055 3.875-7.932 2.603-1.897 6.256-2.845 10.959-2.845h5.449v-2.574c0-1.957-.586-3.511-1.756-4.662-1.171-1.17-2.896-1.756-5.177-1.756-1.998 0-3.673.505-5.025 1.514-1.352 1.01-2.029 2.23-2.029 3.663h-5.63c0-1.635.575-3.209 1.725-4.722 1.171-1.534 2.745-2.745 4.723-3.633 1.998-.888 4.188-1.332 6.569-1.332 3.774 0 6.731.948 8.87 2.845 2.14 1.877 3.25 4.47 3.33 7.78v15.077c0 3.007.384 5.399 1.151 7.175V96h-5.873zm-9.294-4.269c1.756 0 3.421-.454 4.995-1.362 1.574-.908 2.714-2.089 3.421-3.542v-6.72h-4.39c-6.862 0-10.293 2.008-10.293 6.024 0 1.756.585 3.128 1.756 4.117 1.171.989 2.674 1.483 4.511 1.483zM217.268 96h-5.601V49.5h5.601V96zm22.584.606c-4.441 0-8.053-1.454-10.838-4.36-2.785-2.926-4.178-6.832-4.178-11.716v-1.029c0-3.25.615-6.145 1.847-8.689 1.251-2.563 2.987-4.56 5.207-5.994 2.24-1.453 4.662-2.18 7.265-2.18 4.259 0 7.569 1.403 9.93 4.209 2.361 2.805 3.542 6.821 3.542 12.049v2.33h-22.19c.08 3.23 1.019 5.843 2.815 7.841 1.816 1.978 4.117 2.967 6.902 2.967 1.978 0 3.653-.404 5.026-1.21 1.372-.808 2.573-1.878 3.602-3.21l3.421 2.664c-2.745 4.218-6.862 6.328-12.351 6.328zm-.697-29.366c-2.26 0-4.157.828-5.691 2.483-1.534 1.634-2.483 3.935-2.846 6.902h16.408v-.424c-.161-2.845-.928-5.045-2.3-6.6-1.373-1.574-3.23-2.36-5.571-2.36zm39.053 20.072c0-1.514-.575-2.685-1.726-3.512-1.13-.848-3.118-1.574-5.963-2.18-2.826-.605-5.076-1.332-6.751-2.18-1.655-.847-2.886-1.856-3.694-3.027-.787-1.17-1.18-2.563-1.18-4.178 0-2.684 1.13-4.954 3.39-6.811 2.281-1.857 5.187-2.785 8.719-2.785 3.713 0 6.721.958 9.021 2.876 2.321 1.917 3.482 4.37 3.482 7.356h-5.631c0-1.534-.656-2.856-1.968-3.966-1.291-1.11-2.926-1.665-4.904-1.665-2.038 0-3.633.444-4.783 1.332-1.151.888-1.726 2.049-1.726 3.482 0 1.352.535 2.371 1.605 3.057 1.069.686 2.997 1.343 5.782 1.968 2.805.626 5.076 1.373 6.811 2.24 1.736.868 3.018 1.918 3.845 3.149.848 1.21 1.272 2.694 1.272 4.45 0 2.926-1.171 5.278-3.512 7.054-2.341 1.756-5.379 2.634-9.112 2.634-2.624 0-4.945-.465-6.963-1.393-2.019-.928-3.603-2.22-4.753-3.875-1.13-1.675-1.696-3.482-1.696-5.42h5.601c.101 1.878.848 3.371 2.24 4.481 1.413 1.09 3.27 1.635 5.571 1.635 2.119 0 3.814-.424 5.086-1.271 1.291-.868 1.937-2.019 1.937-3.452z" fill="#000" fill-opacity=".17"/>
    <path d="M48.705 56.705v3a3 3 0 0 0 3-3h-3zm-14.168 0v-3a3 3 0 0 0-3 3h3zm0 39.295v3a3 3 0 0 0 3-3h-3zm-5.782 0h-3a3 3 0 0 0 3 3v-3zm0-39.295h3a3 3 0 0 0-3-3v3zm-14.138 0h-3a3 3 0 0 0 3 3v-3zm0-4.783v-3a3 3 0 0 0-3 3h3zm34.088 0h3a3 3 0 0 0-3-3v3zm0 1.783H34.537v6h14.168v-6zm-17.168 3V96h6V56.705h-6zm3 36.295h-5.782v6h5.782v-6zm-2.782 3V56.705h-6V96h6zm-3-42.295H14.617v6h14.138v-6zm-11.138 3v-4.783h-6v4.783h6zm-3-1.783h34.088v-6H14.617v6zm31.088-3v4.783h6v-4.783h-6zM59.967 67.21h-3a3 3 0 0 0 5.326 1.895l-2.326-1.895zm20.162 7.145h3v-.024l-3 .023zm0 21.645v3a3 3 0 0 0 3-3h-3zm-5.6 0h-3a3 3 0 0 0 3 3v-3zm0-21.676h3V74.3l-3 .025zm-1.635-5.237l-2.199 2.041.02.021 2.179-2.062zm-12.927 3.572l-2.697-1.314a3 3 0 0 0-.303 1.314h3zm0 23.341v3a3 3 0 0 0 3-3h-3zm-5.6 0h-3a3 3 0 0 0 3 3v-3zm0-46.5v-3a3 3 0 0 0-3 3h3zm5.6 0h3a3 3 0 0 0-3-3v3zm2.326 19.605c1.905-2.34 4.275-3.466 7.361-3.466v-6c-4.866 0-8.953 1.92-12.013 5.676l4.652 3.79zm7.361-3.466c2.897 0 4.566.8 5.574 1.928 1.07 1.196 1.874 3.287 1.901 6.81l6-.046c-.033-4.286-1.005-8.053-3.428-10.763-2.483-2.777-6.021-3.93-10.047-3.93v6zm7.475 8.716V96h6V74.355h-6zm3 18.645h-5.6v6h5.6v-6zm-2.6 3V74.324h-6V96h6zm0-21.701c-.024-2.738-.652-5.368-2.457-7.274l-4.357 4.124c.334.354.796 1.216.813 3.2l6-.05zm-2.437-7.253c-1.833-1.975-4.44-2.654-7.133-2.654v6c1.788 0 2.47.45 2.736.736l4.397-4.082zm-7.133-2.654c-2.383 0-4.593.646-6.513 2.002l3.46 4.902c.824-.582 1.803-.904 3.053-.904v-6zm-6.513 2.002c-1.803 1.273-3.198 2.943-4.176 4.951l5.394 2.628c.555-1.14 1.3-2.013 2.242-2.677l-3.46-4.902zm-4.48 6.265V96h6V72.66h-6zm3 20.341h-5.6v6h5.6v-6zm-2.6 3V49.5h-6V96h6zm-3-43.5h5.6v-6h-5.6v6zm2.6-3v17.71h6V49.5h-6zM91.27 92.246l-2.173 2.068.008.008 2.165-2.076zm-2.33-21.433l-2.696-1.317-.005.01 2.7 1.306zm5.207-5.995l1.626 2.52.006-.003-1.633-2.517zm17.195 2.029l-2.295 1.932 2.295-1.932zm3.542 14.38v3a3 3 0 0 0 3-3h-3zm-22.19 0v-3a3 3 0 0 0-3 3.075l3-.075zm2.815 7.84l-2.231 2.006.021.024 2.21-2.03zm15.53-1.453l1.843-2.367a2.999 2.999 0 0 0-4.217.533l2.374 1.834zm3.421 2.664l2.514 1.637a3 3 0 0 0-.671-4.004l-1.843 2.367zm-18.74-20.555l2.189 2.052.012-.013-2.2-2.04zm-2.845 6.902l-2.978-.365a3 3 0 0 0 2.978 3.365v-3zm16.408 0v3a3 3 0 0 0 3-3h-3zm0-.424h3a2.41 2.41 0 0 0-.005-.17l-2.995.17zm-2.301-6.6l-2.261 1.972.013.014 2.248-1.985zm-4.874 24.005c-3.715 0-6.513-1.184-8.671-3.436l-4.332 4.152c3.412 3.56 7.839 5.284 13.003 5.284v-6zm-8.664-3.428c-2.148-2.257-3.351-5.363-3.351-9.648h-6c0 5.484 1.582 10.188 5.004 13.784l4.347-4.136zm-3.351-9.648v-1.029h-6v1.03h6zm0-1.029c0-2.865.54-5.303 1.547-7.381l-5.4-2.615c-1.457 3.008-2.147 6.362-2.147 9.996h6zm1.542-7.372c1.031-2.113 2.414-3.677 4.138-4.79l-3.253-5.041c-2.716 1.753-4.805 4.184-6.276 7.198l5.391 2.633zm4.144-4.794c1.767-1.146 3.625-1.696 5.633-1.696v-6c-3.198 0-6.185.903-8.898 2.662l3.265 5.034zm5.633-1.696c3.532 0 5.938 1.124 7.635 3.14l4.59-3.864c-3.026-3.596-7.24-5.276-12.225-5.276v6zm7.635 3.14c1.746 2.074 2.837 5.3 2.837 10.117h6c0-5.639-1.271-10.445-4.247-13.981l-4.59 3.864zm2.837 10.117v2.33h6v-2.33h-6zm3-.67h-22.19v6h22.19v-6zm-25.19 3.076c.095 3.792 1.218 7.139 3.584 9.771l4.462-4.011c-1.226-1.364-1.98-3.245-2.048-5.91l-5.998.15zm3.605 9.795c2.408 2.622 5.522 3.937 9.112 3.937v-6c-1.98 0-3.468-.662-4.693-1.996l-4.419 4.059zm9.112 3.937c2.384 0 4.614-.488 6.547-1.625l-3.043-5.172c-.811.478-1.932.797-3.504.797v6zm6.547-1.625c1.72-1.012 3.205-2.343 4.455-3.96l-4.748-3.67c-.809 1.048-1.725 1.856-2.75 2.458l3.043 5.172zm.238-3.428l3.421 2.664 3.686-4.734-3.421-2.664-3.686 4.734zm2.749-1.339c-2.134 3.28-5.252 4.964-9.837 4.964v6c6.395 0 11.511-2.535 14.866-7.691l-5.029-3.273zM101.411 64.24c-3.094 0-5.789 1.175-7.892 3.443l4.401 4.079c.965-1.041 2.064-1.522 3.491-1.522v-6zm-7.879 3.43c-2.094 2.232-3.22 5.2-3.636 8.59l5.956.73c.311-2.544 1.082-4.177 2.055-5.215l-4.375-4.105zm-.658 11.955h16.408v-6H92.874v6zm19.408-3v-.424h-6v.424h6zm-.005-.594c-.185-3.269-1.088-6.197-3.047-8.415l-4.497 3.971c.786.89 1.417 2.361 1.554 4.784l5.99-.34zm-3.034-8.4c-2.015-2.312-4.741-3.39-7.832-3.39v6c1.592 0 2.579.495 3.309 1.332l4.523-3.943zM137.648 96h-3a3 3 0 0 0 3 3v-3zm0-44.078v-3a3 3 0 0 0-3 3h3zm29.426 9.778l-2.673 1.362.007.014 2.666-1.376zm2.452 10.778h3v-.015l-3 .015zm-2.422 13.744l-2.665-1.376a.084.084 0 0 0-.007.013l2.672 1.363zm-6.872 7.205l-1.467-2.617-.008.004 1.475 2.613zM149.849 96v3h.03l-.03-3zm-6.388-39.295v-3a3 3 0 0 0-3 3h3zm0 34.542h-3a3 3 0 0 0 3 3v-3zm16.56-4.178l-2.232-2.005-.008.01 2.24 1.995zm.211-26.126l-2.296 1.93.015.019 2.281-1.949zm-9.99-4.238l.028-3h-.028v3zM140.648 96V51.922h-6V96h6zm-3-41.078h12.443v-6h-12.443v6zm12.443 0c3.378 0 6.24.742 8.676 2.143l2.992-5.2c-3.458-1.99-7.377-2.943-11.668-2.943v6zm8.676 2.143c2.425 1.396 4.295 3.37 5.634 5.998l5.346-2.725c-1.849-3.628-4.52-6.478-7.988-8.474l-2.992 5.201zm5.641 6.011c1.367 2.648 2.1 5.761 2.118 9.417l6-.03c-.022-4.458-.923-8.53-2.786-12.139l-5.332 2.752zm2.118 9.402v2.815h6v-2.816h-6zm0 2.815c0 3.765-.729 6.92-2.087 9.553l5.331 2.752c1.871-3.625 2.756-7.755 2.756-12.305h-6zm-2.094 9.566c-1.333 2.615-3.211 4.574-5.667 5.951l2.935 5.233c3.517-1.972 6.221-4.817 8.077-8.459l-5.345-2.725zm-5.675 5.955c-2.459 1.389-5.408 2.15-8.939 2.186l.061 6c4.38-.045 8.354-1 11.828-2.96l-2.95-5.226zM149.849 93h-12.201v6h12.201v-6zm-9.388-36.295v34.542h6V56.705h-6zm3 37.542h6.115v-6h-6.115v6zm6.115 0c5.149 0 9.519-1.63 12.684-5.182l-4.479-3.992c-1.799 2.019-4.392 3.174-8.205 3.174v6zm12.676-5.173c3.157-3.513 4.522-8.294 4.522-13.902h-6c0 4.685-1.136 7.835-2.985 9.892l4.463 4.01zm4.522-13.902v-2.573h-6v2.573h6zm0-2.573c0-5.451-1.286-10.122-4.26-13.604l-4.563 3.897c1.749 2.047 2.823 5.147 2.823 9.707h6zm-4.245-13.586c-3.012-3.583-7.244-5.26-12.259-5.308l-.056 6c3.624.034 6.051 1.181 7.722 3.169l4.593-3.861zm-12.287-5.308h-6.781v6h6.781v-6zM197.681 96l-2.684 1.342A3.001 3.001 0 0 0 197.681 99v-3zm-.787-3.451l2.977-.363a3 3 0 0 0-5.139-1.718l2.162 2.08zm-17.287 1.332l-1.997 2.239a.535.535 0 0 1 .023.02l1.974-2.26zm.788-14.895l1.763 2.427.003-.002-1.766-2.425zm16.408-2.845v3a3 3 0 0 0 3-3h-3zm-1.756-7.236l-2.121 2.122.018.018 2.103-2.14zm-12.231 3.421v3a3 3 0 0 0 3-3h-3zm-5.63 0h-3a3 3 0 0 0 3 3v-3zm1.725-4.722l-2.385-1.82-.003.004 2.388 1.816zm4.723-3.633l-1.219-2.742-.01.005 1.229 2.737zm15.439 1.513l-1.99 2.245.012.01 1.978-2.255zm3.33 7.78h3l-.001-.072-2.999.073zm1.151 22.252h3c0-.41-.084-.814-.246-1.19l-2.754 1.19zm0 .484v3a3 3 0 0 0 3-3h-3zm-6.751-9.173l2.698 1.312c.199-.409.302-.857.302-1.312h-3zm0-6.72h3a3 3 0 0 0-3-3v3zm3.561 14.551c.002.005-.022-.043-.062-.166a5.938 5.938 0 0 1-.135-.506 18.258 18.258 0 0 1-.296-1.8l-5.955.726c.203 1.666.506 3.278 1.081 4.43l5.367-2.684zm-5.632-4.19c-2.063 2.143-4.401 3.138-7.163 3.138v6c4.464 0 8.342-1.71 11.486-4.977l-4.323-4.16zm-7.163 3.138c-2.633 0-4.546-.725-5.988-1.984l-3.948 4.518c2.717 2.373 6.112 3.466 9.936 3.466v-6zm-5.964-1.964c-1.409-1.256-2.085-2.757-2.085-4.724h-6c0 3.644 1.381 6.785 4.09 9.201l3.995-4.477zm-2.085-4.724c0-2.527.891-4.236 2.638-5.505l-3.527-4.854c-3.42 2.485-5.111 6.065-5.111 10.359h6zm2.641-5.507c1.903-1.387 4.846-2.27 9.193-2.27v-6c-5.058 0-9.422 1.013-12.726 3.42l3.533 4.85zm9.193-2.27h5.449v-6h-5.449v6zm8.449-3v-2.574h-6v2.574h6zm0-2.574c0-2.595-.8-4.98-2.653-6.801l-4.206 4.279c.488.48.859 1.203.859 2.522h6zm-2.635-6.783c-1.918-1.918-4.528-2.635-7.298-2.635v6c1.792 0 2.633.455 3.056.878l4.242-4.243zm-7.298-2.635c-2.522 0-4.859.646-6.82 2.11l3.589 4.808c.743-.554 1.757-.918 3.231-.918v-6zm-6.82 2.11c-1.958 1.461-3.234 3.512-3.234 6.067h6c0-.31.077-.702.823-1.259l-3.589-4.808zm-.234 3.067h-5.63v6h5.63v-6zm-2.63 3c0-.876.293-1.827 1.114-2.907l-4.777-3.63c-1.48 1.947-2.337 4.144-2.337 6.537h6zm1.11-2.902c.832-1.09 1.987-2.007 3.567-2.717l-2.458-5.473c-2.376 1.067-4.369 2.572-5.879 4.55l4.77 3.64zm3.556-2.712c1.582-.703 3.352-1.073 5.351-1.073v-6c-2.763 0-5.373.517-7.788 1.59l2.437 5.483zm5.351-1.073c3.28 0 5.445.818 6.88 2.09l3.981-4.49c-2.844-2.521-6.592-3.6-10.861-3.6v6zm6.892 2.1c1.404 1.233 2.245 2.977 2.309 5.599l5.998-.146c-.097-3.998-1.476-7.441-4.35-9.963l-3.957 4.51zm2.308 5.526V88.34h6V73.265h-6zm0 15.076c0 3.213.403 6.063 1.397 8.364l5.508-2.379c-.54-1.25-.905-3.184-.905-5.985h-6zm1.151 7.175V96h6v-.484h-6zm3-2.516h-5.873v6h5.873v-6zm-15.167 1.731c2.301 0 4.481-.602 6.494-1.763l-2.998-5.197c-1.135.654-2.286.96-3.496.96v6zm6.494-1.763c2.026-1.17 3.619-2.771 4.62-4.83l-5.396-2.622c-.413.848-1.1 1.607-2.222 2.255l2.998 5.197zm4.922-6.14v-6.722h-6v6.721h6zm-3-9.722h-4.39v6h4.39v-6zm-4.39 0c-3.625 0-6.836.514-9.235 1.917-2.647 1.55-4.058 4.048-4.058 7.108h6c0-.956.304-1.47 1.089-1.93 1.032-.604 2.968-1.095 6.204-1.095v-6zm-13.293 9.025c0 2.495.872 4.763 2.82 6.409l3.872-4.584c-.393-.332-.692-.809-.692-1.825h-6zm2.82 6.409c1.814 1.533 4.048 2.191 6.447 2.191v-6c-1.275 0-2.048-.33-2.575-.775l-3.872 4.584zM217.268 96v3a3 3 0 0 0 3-3h-3zm-5.601 0h-3a3 3 0 0 0 3 3v-3zm0-46.5v-3a3 3 0 0 0-3 3h3zm5.601 0h3a3 3 0 0 0-3-3v3zm0 43.5h-5.601v6h5.601v-6zm-2.601 3V49.5h-6V96h6zm-3-43.5h5.601v-6h-5.601v6zm2.601-3V96h6V49.5h-6zm14.746 42.746l-2.173 2.068.007.008 2.166-2.076zm-2.331-21.433l-2.696-1.317-.005.01 2.701 1.306zm5.207-5.995l1.627 2.52.005-.003-1.632-2.517zm17.195 2.029l-2.295 1.932 2.295-1.932zm3.542 14.38v3a3 3 0 0 0 3-3h-3zm-22.19 0v-3a3 3 0 0 0-3 3.075l3-.075zm2.815 7.84l-2.231 2.006.021.024 2.21-2.03zm15.53-1.453l1.843-2.367a2.999 2.999 0 0 0-4.217.533l2.374 1.834zm3.421 2.664l2.515 1.637a3 3 0 0 0-.672-4.004l-1.843 2.367zm-18.739-20.555l2.188 2.052.012-.013-2.2-2.04zm-2.846 6.902l-2.978-.365a3 3 0 0 0 2.978 3.365v-3zm16.408 0v3a3 3 0 0 0 3-3h-3zm0-.424h3c0-.056-.001-.113-.004-.17l-2.996.17zm-2.3-6.6l-2.262 1.972.013.014 2.249-1.985zm-4.874 24.005c-3.716 0-6.514-1.184-8.672-3.436l-4.332 4.152c3.412 3.56 7.839 5.284 13.004 5.284v-6zm-8.665-3.428c-2.148-2.257-3.351-5.363-3.351-9.648h-6c0 5.484 1.582 10.188 5.005 13.784l4.346-4.136zm-3.351-9.648v-1.029h-6v1.03h6zm0-1.029c0-2.865.541-5.303 1.547-7.381l-5.401-2.615c-1.456 3.008-2.146 6.362-2.146 9.996h6zm1.543-7.372c1.031-2.113 2.413-3.677 4.138-4.79l-3.254-5.041c-2.716 1.753-4.805 4.184-6.276 7.198l5.392 2.633zm4.143-4.794c1.768-1.146 3.625-1.696 5.633-1.696v-6c-3.198 0-6.185.903-8.898 2.662l3.265 5.034zm5.633-1.696c3.532 0 5.938 1.124 7.635 3.14l4.59-3.864c-3.026-3.596-7.24-5.276-12.225-5.276v6zm7.635 3.14c1.746 2.074 2.837 5.3 2.837 10.117h6c0-5.639-1.271-10.445-4.247-13.981l-4.59 3.864zm2.837 10.117v2.33h6v-2.33h-6zm3-.67h-22.19v6h22.19v-6zm-25.19 3.076c.095 3.792 1.218 7.139 3.584 9.771l4.462-4.011c-1.226-1.364-1.981-3.245-2.047-5.91l-5.999.15zm3.605 9.795c2.408 2.622 5.523 3.937 9.112 3.937v-6c-1.98 0-3.468-.662-4.692-1.996l-4.42 4.059zm9.112 3.937c2.385 0 4.614-.488 6.547-1.625l-3.042-5.172c-.812.478-1.933.797-3.505.797v6zm6.547-1.625c1.72-1.012 3.206-2.343 4.455-3.96l-4.748-3.67c-.809 1.048-1.725 1.856-2.749 2.458l3.042 5.172zm.238-3.428l3.421 2.664 3.686-4.734-3.421-2.664-3.686 4.734zm2.75-1.339c-2.134 3.28-5.253 4.964-9.837 4.964v6c6.395 0 11.51-2.535 14.866-7.691l-5.029-3.273zM239.155 64.24c-3.094 0-5.789 1.175-7.891 3.443l4.4 4.079c.965-1.041 2.064-1.522 3.491-1.522v-6zm-7.879 3.43c-2.094 2.232-3.22 5.2-3.636 8.59l5.956.73c.311-2.544 1.082-4.177 2.056-5.215l-4.376-4.105zm-.658 11.955h16.408v-6h-16.408v6zm19.408-3v-.424h-6v.424h6zm-.004-.594c-.186-3.269-1.089-6.197-3.048-8.415l-4.497 3.971c.786.89 1.417 2.361 1.554 4.784l5.991-.34zm-3.035-8.4c-2.015-2.312-4.741-3.39-7.832-3.39v6c1.592 0 2.579.495 3.309 1.332l4.523-3.943zM276.482 83.8l-1.8 2.4.049.035 1.751-2.435zm-5.963-2.18l-.629 2.933.004.001.625-2.934zm-6.751-2.18l-1.368 2.67.013.007 1.355-2.677zm-3.694-3.027l-2.489 1.674.02.03 2.469-1.704zm2.21-10.99l-1.894-2.326-.01.009 1.904 2.318zm17.74.092l-1.92 2.304.01.008 1.91-2.312zm3.482 7.356v3a3 3 0 0 0 3-3h-3zm-5.631 0h-3a3 3 0 0 0 3 3v-3zm-1.968-3.966l-1.955 2.275.017.015 1.938-2.29zm-4.026 8.174l-.658 2.927.005.001.653-2.928zm6.811 2.24l1.342-2.683-1.342 2.683zm3.845 3.149l-2.49 1.673.032.047 2.458-1.72zm-2.24 11.504l1.8 2.4.013-.01-1.813-2.39zm-16.075 1.24l-1.254 2.726 1.254-2.725zm-4.753-3.874l-2.487 1.678.023.034 2.464-1.712zm-1.696-5.42v-3a3 3 0 0 0-3 3h3zm5.601 0l2.996-.16a3 3 0 0 0-2.996-2.84v3zm2.24 4.481l-1.87 2.346.038.03 1.832-2.376zm10.657.364l1.664 2.496.009-.006-1.673-2.49zm4.937-3.452c0-2.401-.979-4.512-2.974-5.947l-3.503 4.871c.306.22.477.451.477 1.076h6zm-2.926-5.911c-1.684-1.264-4.225-2.094-7.139-2.714l-1.249 5.868c2.777.591 4.213 1.214 4.788 1.646l3.6-4.8zm-7.135-2.713c-2.693-.577-4.668-1.237-6.025-1.923l-2.709 5.353c1.993 1.009 4.519 1.803 7.477 2.436l1.257-5.866zm-6.012-1.917c-1.345-.688-2.139-1.404-2.591-2.06l-4.939 3.406c1.162 1.686 2.83 2.988 4.795 3.995l2.735-5.34zm-2.571-2.03c-.408-.608-.67-1.397-.67-2.505h-6c0 2.122.524 4.118 1.691 5.852l4.979-3.348zm-.67-2.505c0-1.698.657-3.148 2.294-4.493l-3.808-4.636c-2.883 2.368-4.486 5.46-4.486 9.13h6zm2.284-4.485c1.644-1.338 3.839-2.111 6.825-2.111v-6c-4.078 0-7.695 1.083-10.613 3.458l3.788 4.653zm6.825-2.111c3.185 0 5.459.812 7.101 2.18l3.841-4.609c-2.96-2.467-6.7-3.571-10.942-3.571v6zm7.111 2.189c1.637 1.352 2.392 2.96 2.392 5.043h6c0-3.89-1.566-7.187-4.571-9.67l-3.821 4.627zm5.392 2.043h-5.631v6h5.631v-6zm-2.631 3c0-2.529-1.136-4.653-3.03-6.256l-3.876 4.58c.73.618.906 1.137.906 1.676h6zm-3.012-6.241c-1.922-1.652-4.287-2.39-6.86-2.39v6c1.383 0 2.288.372 2.949.94l3.911-4.55zm-6.86-2.39c-2.44 0-4.766.53-6.616 1.958l3.666 4.749c.45-.348 1.314-.707 2.95-.707v-6zm-6.616 1.958c-1.874 1.446-2.893 3.478-2.893 5.856h6c0-.488.132-.778.559-1.107l-3.666-4.75zm-2.893 5.856c0 2.295.991 4.303 2.985 5.582l3.239-5.05c-.143-.092-.165-.145-.166-.148-.006-.01-.058-.109-.058-.384h-6zm2.985 5.582c1.551.996 3.937 1.74 6.744 2.37l1.315-5.854c-2.762-.62-4.232-1.189-4.82-1.566l-3.239 5.05zm6.749 2.371c2.669.596 4.683 1.276 6.123 1.996l2.683-5.367c-2.032-1.016-4.559-1.829-7.5-2.485l-1.306 5.856zm6.123 1.996c1.411.705 2.234 1.45 2.696 2.138l4.98-3.347c-1.192-1.774-2.933-3.128-4.993-4.158l-2.683 5.367zm2.728 2.185c.433.618.73 1.471.73 2.73h6c0-2.253-.551-4.366-1.814-6.17l-4.916 3.44zm.73 2.73c0 1.983-.728 3.452-2.325 4.664l3.626 4.78c3.085-2.34 4.699-5.575 4.699-9.444h-6zm-2.312 4.654c-1.694 1.27-4.047 2.034-7.312 2.034v6c4.202 0 7.924-.993 10.912-3.234l-3.6-4.8zm-7.312 2.034c-2.269 0-4.149-.4-5.71-1.119l-2.507 5.451c2.476 1.14 5.238 1.668 8.217 1.668v-6zm-5.71-1.119c-1.583-.728-2.729-1.69-3.543-2.861l-4.927 3.424c1.487 2.139 3.509 3.76 5.963 4.888l2.507-5.45zm-3.519-2.827c-.811-1.202-1.183-2.428-1.183-3.741h-6c0 2.562.759 4.949 2.209 7.097l4.974-3.356zm-4.183-.741h5.601v-6h-5.601v6zm2.605-2.839c.144 2.679 1.263 4.989 3.366 6.665l3.74-4.692c-.681-.543-1.057-1.22-1.114-2.295l-5.992.322zm3.404 6.695c2.073 1.599 4.632 2.26 7.403 2.26v-6c-1.832 0-2.986-.43-3.738-1.01l-3.665 4.75zm7.403 2.26c2.49 0 4.829-.496 6.75-1.776l-3.329-4.993c-.622.415-1.673.768-3.421.768v6zm6.759-1.782c2.036-1.369 3.264-3.412 3.264-5.942h-6c0 .337-.064.594-.611.961l3.347 4.98z" fill="#9B51E0"/>
  </g>
  <defs>
    <filter id="filter0_d" x="7.617" y="46.5" width="283.191" height="61.105" filterUnits="userSpaceOnUse" color-interpolation-filters="sRGB">
      <feFlood flood-opacity="0" result="BackgroundImageFix"/>
      <feColorMatrix in="SourceAlpha" values="0 0 0 0 0 0 0 0 0 0 0 0 0 0 0 0 0 0 127 0"/>
      <feOffset dy="4"/>
      <feGaussianBlur stdDeviation="2"/>
      <feColorMatrix values="0 0 0 0 0 0 0 0 0 0 0 0 0 0 0 0 0 0 0.25 0"/>
      <feBlend in2="BackgroundImageFix" result="effect1_dropShadow"/>
      <feBlend in="SourceGraphic" in2="effect1_dropShadow" result="shape"/>
    </filter>
  </defs>
</svg>
